# xmcd CD database file
# Copyright (C) 1993-1998 Ti Kan
# 
# Track frame offsets:
#     175
#     11335
#     23225
#     39615
#     59410
#     73095
#     95187
#     130022
#     151555
#     169345
#     215902
#     225232
#     240372
#     264280
# 
# Disc length: 3946 seconds
# 
# Revision: 1
# Processed by: cddbd v1.4b41PL1 Copyright (c) Steve Scherf et al.
# Submitted via: DiscPlay 4.0.4
# 
DISCID=b30f680e
DTITLE=Irma Thomas - Irma Thomas Live!
DYEAR=1900
DGENRE=
TTITLE0=Breakaway
TTITLE1=Time Is On My Side
TTITLE2=Hip Shakin' Mama
TTITLE3=That's What Love Is All About
TTITLE4=Thinking of You
TTITLE5=I Needed Somebody
TTITLE6=Medley: I've Been Loving You Too Long/Please Please Please
TTITLE7=Hittin' On Nothin'
TTITLE8=It's Raining
TTITLE9=Second Line Medley: I Done Got Over/Iko Iko/Hey Pocky Way
TTITLE10=Wish Someone Would Care
TTITLE11=You Can Have My Husband
TTITLE12=Oh Me Oh My (I'm a Fool For You)
TTITLE13=Simply the Best
EXTD=
EXTT0=
EXTT1=
EXTT2=
EXTT3=
EXTT4=
EXTT5=
EXTT6=
EXTT7=
EXTT8=
EXTT9=
EXTT10=
EXTT11=
EXTT12=
EXTT13=
PLAYORDER=
